<svg xmlns="http://www.w3.org/2000/svg" xmlns:xlink="http://www.w3.org/1999/xlink" width="158.916" height="87.048" viewBox="0 0 158.916 87.048">
  <defs>
    <clipPath id="clip-path">
      <path id="Clip_18" data-name="Clip 18" d="M0,0H16.194V15.961H0Z" transform="translate(0 0.34)" fill="none"/>
    </clipPath>
  </defs>
  <g id="Group_36" data-name="Group 36" transform="translate(0 0)">
    <path id="Fill_1" data-name="Fill 1" d="M3.352,23.33H0V.393H3.352V1.988c.155-.122.29-.231.409-.327.232-.188.433-.349.681-.525A6.407,6.407,0,0,1,8.184,0a7.349,7.349,0,0,1,6.351,3.55,8.594,8.594,0,0,1-.757,9.9,6.816,6.816,0,0,1-5.412,2.5,9.051,9.051,0,0,1-.908-.047,6.641,6.641,0,0,1-4.106-1.963v9.381Zm4.1-20.171h0a5.162,5.162,0,0,0-2.722.777A2.851,2.851,0,0,0,3.2,6.72l0,3.162a1.67,1.67,0,0,0,.384,1.146,4.876,4.876,0,0,0,3.871,1.805,5.135,5.135,0,0,0,2.319-.549,4.545,4.545,0,0,0,2.195-2.348,5.29,5.29,0,0,0,.172-3.309A4.741,4.741,0,0,0,7.455,3.16Z" transform="translate(19.738 44.403)" fill="#0e2c2e"/>
    <path id="Fill_3" data-name="Fill 3" d="M3.352,23.33H0V.393H3.352V1.988c.155-.122.29-.231.409-.327.232-.188.433-.349.681-.525A6.407,6.407,0,0,1,8.184,0a7.349,7.349,0,0,1,6.351,3.55,8.594,8.594,0,0,1-.757,9.9,6.816,6.816,0,0,1-5.412,2.5,9.051,9.051,0,0,1-.908-.047,6.641,6.641,0,0,1-4.106-1.963v9.381Zm4.1-20.171h0a5.162,5.162,0,0,0-2.722.777A2.851,2.851,0,0,0,3.2,6.72l0,3.162a1.67,1.67,0,0,0,.384,1.146,4.876,4.876,0,0,0,3.871,1.805,5.135,5.135,0,0,0,2.319-.549,4.545,4.545,0,0,0,2.195-2.348,5.29,5.29,0,0,0,.172-3.309A4.741,4.741,0,0,0,7.455,3.16Z" transform="translate(89.364 44.403)" fill="#0e2c2e"/>
    <path id="Fill_5" data-name="Fill 5" d="M8.5,15.965a11.112,11.112,0,0,1-1.442-.1A7.593,7.593,0,0,1,1.42,12.58,8.281,8.281,0,0,1,.1,6.609,7.74,7.74,0,0,1,3.073,1.582,8.348,8.348,0,0,1,7.986,0a7.789,7.789,0,0,1,4.682,1.513,7.352,7.352,0,0,1,2.752,4.6,12.273,12.273,0,0,1,.232,2.354H3.487a4.244,4.244,0,0,0,3.092,4.039,6.182,6.182,0,0,0,1.834.291,6.081,6.081,0,0,0,3.736-1.366A13.383,13.383,0,0,0,13.4,10.358c.014.015,1.378,1.528,2.065,2.286a5.085,5.085,0,0,1-.446.53A8.9,8.9,0,0,1,8.5,15.965ZM7.916,3.084C5.88,3.084,4.3,4.018,3.9,5.463h7.862C11.419,4.034,10,3.123,8.048,3.085Z" transform="translate(37.862 44.414)" fill="#0e2c2e"/>
    <path id="Fill_7" data-name="Fill 7" d="M8.5,15.965a11.112,11.112,0,0,1-1.442-.1A7.593,7.593,0,0,1,1.42,12.58,8.281,8.281,0,0,1,.1,6.609,7.74,7.74,0,0,1,3.073,1.582,8.348,8.348,0,0,1,7.986,0a7.789,7.789,0,0,1,4.682,1.513,7.352,7.352,0,0,1,2.752,4.6,12.273,12.273,0,0,1,.232,2.354H3.487a4.244,4.244,0,0,0,3.092,4.039,6.182,6.182,0,0,0,1.834.291,6.081,6.081,0,0,0,3.736-1.366A13.383,13.383,0,0,0,13.4,10.358c.014.015,1.378,1.528,2.065,2.286a5.085,5.085,0,0,1-.446.53A8.9,8.9,0,0,1,8.5,15.965ZM7.916,3.084C5.88,3.084,4.3,4.018,3.9,5.463h7.862C11.419,4.034,10,3.123,8.048,3.085Z" transform="translate(143.264 44.414)" fill="#0e2c2e"/>
    <path id="Fill_9" data-name="Fill 9" d="M7.758,16a8.259,8.259,0,0,1-1.318-.111A7.071,7.071,0,0,1,.378,10.43a8.875,8.875,0,0,1-.21-4.255A8.139,8.139,0,0,1,2.127,2.4,7.408,7.408,0,0,1,7.584,0a6.4,6.4,0,0,1,4.564,1.84c.041.04.111.1.193.177l.23.209V.366l3.217.016V15.619H12.572V13.863c-.169.141-.493.437-.5.44A6.19,6.19,0,0,1,7.758,16ZM8.319,3.161a4.949,4.949,0,0,0-2.193.51A4.729,4.729,0,0,0,3.63,9.28a4.266,4.266,0,0,0,3.477,3.409,5.987,5.987,0,0,0,1.325.156,4.948,4.948,0,0,0,3.679-1.659,1.533,1.533,0,0,0,.46-1.2c-.021-.439-.016-.887-.012-1.319,0-.2,0-.4,0-.594s0-.413,0-.619c.005-.507.011-1.031-.018-1.545a1.607,1.607,0,0,0-.292-.824A4.894,4.894,0,0,0,8.319,3.161Z" transform="translate(107.536 44.391)" fill="#0e2c2e"/>
    <path id="Fill_11" data-name="Fill 11" d="M3.276,15.6H0V.382L3.28.347l0,1.961c.306-.349.482-.593.7-.791C6.557-.824,11.583-.517,13.409,2.872a7.471,7.471,0,0,1,.858,3.451v9.246H10.881s.015-5.649,0-8.012a10.735,10.735,0,0,0-.109-1.578,3.133,3.133,0,0,0-2.946-2.7A4.967,4.967,0,0,0,4.174,4.363a2.153,2.153,0,0,0-.914,1.848c.039,2.808.015,9.39.015,9.39" transform="translate(56.942 44.411)" fill="#0e2c2e"/>
    <path id="Fill_13" data-name="Fill 13" d="M12.769,10.547,15,12.592a6.454,6.454,0,0,1-.551.758A8.335,8.335,0,0,1,7.1,15.885,7.745,7.745,0,0,1,1.44,12.617,7.948,7.948,0,0,1,5.641.411,8.529,8.529,0,0,1,13.657,1.9a12.4,12.4,0,0,1,1.013.988L12.543,5.164c-.29-.247-.537-.459-.786-.667a5.261,5.261,0,0,0-6.994.128,4.994,4.994,0,0,0-.9,5.424,4.725,4.725,0,0,0,4.6,2.7,5.4,5.4,0,0,0,3.71-1.656c.17-.173.36-.326.6-.547" transform="translate(126.728 44.413)" fill="#0e2c2e"/>
    <path id="Fill_15" data-name="Fill 15" d="M0,13.031l2.139-2.26c.288.27.539.515.8.75a4.753,4.753,0,0,0,3.6,1.451,2.431,2.431,0,0,0,.876-.221,1.5,1.5,0,0,0,.178-2.724,6.411,6.411,0,0,0-1.358-.619c-.911-.335-1.856-.587-2.749-.962a4.522,4.522,0,0,1-2.641-2.4A4.063,4.063,0,0,1,2.354,1.052,7.011,7.011,0,0,1,9.36.825a6,6,0,0,1,2.057,1.512L9.557,4.5c-.284-.2-.527-.363-.766-.534a4.664,4.664,0,0,0-3.185-1A1.458,1.458,0,0,0,4.188,4.034a1.292,1.292,0,0,0,.789,1.5c.614.313,1.286.512,1.93.77A26.125,26.125,0,0,1,9.59,7.411a4.029,4.029,0,0,1,2.247,3.969,4.367,4.367,0,0,1-3.118,4.2A8.1,8.1,0,0,1,.25,13.4,4.178,4.178,0,0,1,0,13.031" transform="translate(73.972 44.399)" fill="#0e2c2e"/>
    <g id="Group_19" data-name="Group 19" transform="translate(0 44.049)">
      <path id="Clip_18-2" data-name="Clip 18" d="M0,0H16.194V15.961H0Z" transform="translate(0 0.34)" fill="none"/>
      <g id="Group_19-2" data-name="Group 19" clip-path="url(#clip-path)">
        <path id="Fill_17" data-name="Fill 17" d="M8.2,15.961H8.158a8.094,8.094,0,0,1-5.99-2.426A8.06,8.06,0,0,1,0,7.884,7.823,7.823,0,0,1,2.277,2.336,8.267,8.267,0,0,1,8.1,0h.085A8.109,8.109,0,0,1,14.1,2.428a7.52,7.52,0,0,1,2.086,5.557,7.5,7.5,0,0,1-2.107,5.545A8.044,8.044,0,0,1,8.2,15.961ZM8.1,3.143A4.837,4.837,0,1,0,12.934,7.98,4.843,4.843,0,0,0,8.1,3.143Z" transform="translate(0 0.34)" fill="#0e2c2e"/>
      </g>
    </g>
    <path id="Fill_20" data-name="Fill 20" d="M6.463,5.89h0a.187.187,0,0,0-.261,0,4.418,4.418,0,0,1-1.037.759,2.7,2.7,0,0,1-1.231.26A2.548,2.548,0,0,1,2.87,6.686a2.688,2.688,0,0,1-.853-.61,2.826,2.826,0,0,1-.566-.915,3.158,3.158,0,0,1-.205-1.143,3.117,3.117,0,0,1,.2-1.136,2.837,2.837,0,0,1,.567-.911A2.582,2.582,0,0,1,3.933,1.15a2.62,2.62,0,0,1,1.224.265,4.556,4.556,0,0,1,.982.7.191.191,0,0,0,.136.052h0a.192.192,0,0,0,.129-.059l.573-.616A.19.19,0,0,0,6.97,1.23a5.947,5.947,0,0,0-.593-.5A3.62,3.62,0,0,0,5.7.339a4.071,4.071,0,0,0-.8-.25A4.743,4.743,0,0,0,3.944,0,3.919,3.919,0,0,0,2.362.318a3.821,3.821,0,0,0-1.25.871A4.046,4.046,0,0,0,.294,2.473,4.185,4.185,0,0,0,0,4.039,4.212,4.212,0,0,0,.294,5.615a3.914,3.914,0,0,0,.819,1.275,3.839,3.839,0,0,0,2.8,1.166,4.3,4.3,0,0,0,.966-.1,4.058,4.058,0,0,0,.812-.278,3.91,3.91,0,0,0,.708-.43A5.461,5.461,0,0,0,7.017,6.7a.188.188,0,0,0,0-.264Z" transform="translate(43.238 78.992)" fill="#0e2c2e"/>
    <path id="Fill_22" data-name="Fill 22" d="M5.207,6.653H1.214V.188A.188.188,0,0,0,1.026,0H.188A.188.188,0,0,0,0,.188V7.615A.188.188,0,0,0,.188,7.8H5.207a.188.188,0,0,0,.188-.187V6.84a.188.188,0,0,0-.187-.187" transform="translate(58.68 79.119)" fill="#0e2c2e"/>
    <path id="Fill_24" data-name="Fill 24" d="M1.026,0H.188A.188.188,0,0,0,0,.188V7.615A.188.188,0,0,0,.188,7.8h.839a.188.188,0,0,0,.188-.187V.188A.188.188,0,0,0,1.026,0" transform="translate(72.605 79.119)" fill="#0e2c2e"/>
    <path id="Fill_26" data-name="Fill 26" d="M6.469,0H5.652a.188.188,0,0,0-.187.188V5.6L1.12.071A.187.187,0,0,0,.973,0H.188A.188.188,0,0,0,0,.188V7.615A.188.188,0,0,0,.188,7.8H1a.188.188,0,0,0,.188-.187V2.066L5.654,7.732A.187.187,0,0,0,5.8,7.8h.668a.188.188,0,0,0,.188-.187V.188A.188.188,0,0,0,6.469,0" transform="translate(82.901 79.119)" fill="#0e2c2e"/>
    <path id="Fill_28" data-name="Fill 28" d="M1.026,0H.188A.188.188,0,0,0,0,.188V7.615A.188.188,0,0,0,.188,7.8h.839a.188.188,0,0,0,.188-.187V.188A.188.188,0,0,0,1.026,0" transform="translate(98.641 79.119)" fill="#0e2c2e"/>
    <path id="Fill_30" data-name="Fill 30" d="M7.015,6.431,6.463,5.89a.188.188,0,0,0-.261,0,4.441,4.441,0,0,1-1.037.759,2.7,2.7,0,0,1-1.231.26A2.544,2.544,0,0,1,2.87,6.686a2.679,2.679,0,0,1-.853-.61,2.825,2.825,0,0,1-.567-.916,3.164,3.164,0,0,1-.2-1.142,3.128,3.128,0,0,1,.2-1.136,2.828,2.828,0,0,1,.568-.911A2.58,2.58,0,0,1,3.933,1.15a2.619,2.619,0,0,1,1.223.265,4.544,4.544,0,0,1,.982.7.162.162,0,0,0,.137.052.189.189,0,0,0,.129-.06l.574-.616A.19.19,0,0,0,6.97,1.23a5.942,5.942,0,0,0-.592-.5A3.609,3.609,0,0,0,5.7.339a4.066,4.066,0,0,0-.8-.25A4.755,4.755,0,0,0,3.944,0,3.917,3.917,0,0,0,2.362.318a3.819,3.819,0,0,0-1.249.871A4.02,4.02,0,0,0,.294,2.473,4.185,4.185,0,0,0,0,4.039,4.212,4.212,0,0,0,.294,5.615a3.9,3.9,0,0,0,.819,1.275,3.842,3.842,0,0,0,2.8,1.166,4.307,4.307,0,0,0,.966-.1,4.058,4.058,0,0,0,.812-.278,3.927,3.927,0,0,0,.708-.43A5.548,5.548,0,0,0,7.017,6.7a.188.188,0,0,0,0-.264" transform="translate(108.608 78.992)" fill="#0e2c2e"/>
    <path id="Fill_32" data-name="Fill 32" d="M8.526.076,8.494,0,.635.009a.635.635,0,1,0,0,1.269h0l8.554-.01-.119-.191a7.54,7.54,0,0,1-.545-1" transform="translate(57.337 20.048)" fill="#0e2c2e"/>
    <path id="Fill_34" data-name="Fill 34" d="M13.971,27.939A13.969,13.969,0,1,1,27.94,13.969a13.8,13.8,0,0,1-1.379,6.043L36.014,20a.635.635,0,0,1,0,1.271l-10.147.012A13.9,13.9,0,0,1,13.971,27.939Zm0-26.67A12.7,12.7,0,1,0,24.344,21.287l-18.729.022-.035-.031a4.616,4.616,0,0,1-.862-1.048L4.6,20.04l20.533-.027A12.694,12.694,0,0,0,13.971,1.269Z" transform="translate(66.017 0)" fill="#0e2c2e"/>
  </g>
</svg>
